<svg xmlns="http://www.w3.org/2000/svg" width="340" height="180" viewBox="0 0 170 90" version="1.1" role="img" aria-label="BestOfRS Logo">
  <g>
    <g stroke="none" transform="translate(97.67 21.21) rotate(0 10.54 -5.27)">
      <path fill="#1aa6a6" d="M -0.58,-2.55 Q -0.58,-2.55 0.46,-2.82 1.52,-3.09 2.56,-3.48 3.59,-3.87 5.00,-4.60 6.41,-5.33 7.33,-6.08 8.25,-6.83 9.63,-7.87 11.01,-8.90 11.98,-9.35 12.96,-9.79 13.88,-10.40 14.80,-11.01 16.02,-11.67 17.24,-12.34 18.49,-13.04 19.75,-13.74 20.29,-13.87 20.84,-14.00 21.40,-13.95 21.96,-13.90 22.47,-13.67 22.98,-13.44 23.40,-13.06 23.81,-12.68 24.08,-12.19 24.35,-11.70 24.45,-11.15 24.55,-10.59 24.47,-10.04 24.39,-9.48 24.13,-8.98 23.88,-8.48 23.48,-8.09 23.08,-7.70 22.57,-7.45 22.06,-7.21 21.51,-7.14 20.95,-7.07 20.40,-7.18 19.85,-7.30 19.36,-7.58 18.88,-7.86 18.51,-8.28 18.14,-8.70 17.92,-9.22 17.71,-9.74 17.67,-10.30 17.63,-10.86 17.77,-11.40 17.91,-11.95 18.22,-12.42 18.53,-12.89 18.97,-13.23 19.41,-13.58 19.94,-13.77 20.47,-13.95 21.03,-13.96 21.59,-13.97 22.13,-13.80 22.66,-13.63 23.11,-13.30 23.56,-12.96 23.89,-12.50 24.21,-12.04 24.37,-11.51 24.53,-10.97 24.50,-10.41 24.48,-9.85 24.28,-9.32 24.08,-8.80 23.73,-8.36 23.37,-7.93 22.89,-7.63 22.42,-7.34 22.42,-7.34 22.42,-7.34 20.64,-6.48 18.87,-5.62 17.59,-5.12 16.32,-4.61 14.82,-3.83 13.32,-3.04 12.23,-2.27 11.14,-1.50 10.06,-0.92 8.99,-0.34 7.20,0.40 5.42,1.16 4.07,1.63 2.73,2.10 1.66,2.33 0.58,2.55 0.27,2.58 -0.03,2.61 -0.35,2.57 -0.66,2.53 -0.95,2.41 -1.25,2.30 -1.50,2.11 -1.76,1.93 -1.97,1.69 -2.17,1.45 -2.32,1.17 -2.46,0.89 -2.53,0.58 -2.60,0.27 -2.60,-0.03 -2.59,-0.35 -2.51,-0.65 -2.43,-0.96 -2.28,-1.24 -2.13,-1.52 -1.92,-1.75 -1.70,-1.98 -1.44,-2.16 -1.18,-2.33 -0.88,-2.44 -0.58,-2.55 -0.58,-2.55 L -0.58,-2.55 Z"/>
    </g>
    <g stroke="none" transform="translate(112.41 10.17) rotate(0 6.84 8.98)">
      <path fill="#1aa6a6" d="M 2.61,-0.15 Q 2.61,-0.15 2.68,1.23 2.76,2.63 2.89,3.74 3.02,4.85 3.34,6.79 3.65,8.74 4.07,9.93 4.49,11.12 4.95,12.27 5.41,13.43 5.87,14.41 6.32,15.39 7.31,14.94 8.29,14.49 9.48,14.46 10.66,14.42 10.54,14.63 10.41,14.83 10.72,14.35 11.03,13.86 11.48,13.50 11.93,13.14 12.47,12.95 13.01,12.75 13.58,12.73 14.15,12.72 14.70,12.89 15.25,13.06 15.72,13.39 16.19,13.73 16.52,14.19 16.86,14.66 17.03,15.21 17.19,15.76 17.18,16.33 17.16,16.91 16.96,17.45 16.77,17.99 16.41,18.44 16.05,18.88 15.56,19.19 15.08,19.50 14.52,19.64 13.96,19.78 13.39,19.73 12.81,19.69 12.29,19.46 11.76,19.23 11.33,18.85 10.90,18.46 10.62,17.96 10.34,17.46 10.23,16.90 10.12,16.33 10.20,15.76 10.28,15.19 10.53,14.68 10.79,14.16 11.20,13.76 11.60,13.35 12.12,13.10 12.63,12.84 13.20,12.76 13.77,12.69 14.34,12.79 14.90,12.90 15.40,13.19 15.90,13.47 16.29,13.90 16.67,14.33 16.90,14.85 17.12,15.38 17.17,15.96 17.22,16.53 17.08,17.09 16.94,17.64 16.94,17.64 16.94,17.64 14.63,19.37 12.32,21.09 11.19,21.28 10.06,21.46 8.74,21.42 7.41,21.37 6.33,21.18 5.25,20.98 4.00,20.62 2.75,20.27 1.69,19.18 0.63,18.08 0.30,16.99 -0.02,15.90 -0.38,14.87 -0.75,13.83 -1.04,12.67 -1.33,11.51 -1.67,9.54 -2.01,7.58 -2.12,6.48 -2.23,5.37 -2.33,4.15 -2.43,2.93 -2.52,1.54 -2.61,0.15 -2.59,-0.16 -2.57,-0.47 -2.47,-0.77 -2.38,-1.07 -2.22,-1.34 -2.05,-1.61 -1.83,-1.83 -1.61,-2.06 -1.34,-2.22 -1.06,-2.38 -0.76,-2.48 -0.46,-2.57 -0.15,-2.59 0.16,-2.61 0.47,-2.55 0.78,-2.49 1.07,-2.36 1.35,-2.23 1.60,-2.04 1.85,-1.84 2.04,-1.59 2.24,-1.34 2.37,-1.06 2.49,-0.77 2.55,-0.46 2.61,-0.15 2.61,-0.15 L 2.61,-0.15 Z"/>
    </g>
    <g stroke="none" transform="translate(135.29 48.19) rotate(0 0.71 -4.68)">
      <path fill="#2f6fd4" d="M -0.90,7.35 Q -0.90,7.35 -1.81,7.05 -2.73,6.75 -3.87,6.14 -5.02,5.52 -5.80,4.60 -6.59,3.67 -7.02,2.35 -7.45,1.02 -7.54,-0.78 -7.62,-2.58 -7.63,-4.62 -7.63,-6.66 -7.55,-7.82 -7.46,-8.99 -7.14,-10.38 -6.82,-11.77 -6.19,-13.07 -5.56,-14.37 -4.13,-15.74 -2.71,-17.11 -1.57,-17.37 -0.44,-17.63 0.71,-17.68 1.86,-17.73 3.10,-17.76 4.33,-17.79 6.06,-17.22 7.78,-16.65 8.62,-15.74 9.46,-14.83 9.90,-13.50 10.33,-12.18 10.38,-10.99 10.43,-9.81 10.45,-8.72 10.47,-7.63 10.31,-6.17 10.16,-4.72 9.90,-3.63 9.65,-2.54 9.13,-1.20 8.60,0.12 7.93,1.12 7.26,2.12 6.54,3.10 5.82,4.08 4.83,5.07 3.84,6.06 2.77,6.65 1.71,7.23 0.46,7.37 -0.77,7.52 -2.13,7.32 -3.48,7.13 -6.32,4.40 -9.15,1.67 -9.15,1.06 -9.15,0.45 -8.96,-0.12 -8.76,-0.71 -8.39,-1.20 -8.02,-1.68 -7.52,-2.03 -7.01,-2.38 -6.42,-2.54 -5.83,-2.71 -5.21,-2.67 -4.60,-2.64 -4.03,-2.41 -3.46,-2.19 -2.99,-1.79 -2.52,-1.39 -2.20,-0.87 -1.89,-0.34 -1.75,0.25 -1.62,0.84 -1.69,1.45 -1.75,2.06 -2.01,2.62 -2.27,3.18 -2.69,3.63 -3.11,4.07 -3.65,4.36 -4.19,4.65 -4.80,4.75 -5.40,4.85 -6.01,4.75 -6.62,4.65 -7.16,4.37 -7.70,4.08 -8.12,3.63 -8.55,3.19 -8.80,2.63 -9.06,2.08 -9.13,1.46 -9.20,0.85 -9.07,0.26 -8.94,-0.33 -8.62,-0.86 -8.30,-1.39 -7.84,-1.78 -7.37,-2.18 -6.80,-2.41 -6.23,-2.64 -5.62,-2.67 -5.00,-2.71 -4.41,-2.54 -3.82,-2.38 -3.31,-2.04 -2.80,-1.69 -2.43,-1.20 -2.06,-0.72 -1.86,-0.13 -1.67,0.44 -1.67,0.44 -1.67,0.44 -1.18,0.40 -0.70,0.35 -0.03,-0.55 0.63,-1.45 1.40,-2.51 2.17,-3.56 2.58,-4.78 2.99,-6.00 3.10,-7.24 3.20,-8.49 3.75,-9.60 4.29,-10.70 3.09,-10.73 1.88,-10.75 0.69,-10.32 -0.49,-9.89 -0.89,-8.72 -1.29,-7.55 -1.38,-6.12 -1.47,-4.70 -1.46,-2.85 -1.45,-0.99 -1.16,0.34 -0.87,1.69 0.01,2.05 0.90,2.42 1.18,2.56 1.46,2.70 1.70,2.91 1.94,3.12 2.12,3.38 2.31,3.64 2.42,3.93 2.54,4.22 2.58,4.54 2.62,4.85 2.59,5.17 2.55,5.48 2.44,5.78 2.33,6.08 2.16,6.34 1.98,6.60 1.75,6.81 1.51,7.03 1.23,7.18 0.95,7.33 0.65,7.41 0.34,7.49 0.02,7.49 -0.28,7.49 -0.59,7.42 -0.90,7.35 -0.90,7.35 L -0.90,7.35 Z"/>
    </g>
    <g stroke="none" transform="translate(23.01 79.16) rotate(358.86 63.57 0.26)">
      <path fill="#e8473c" d="M 0,-1.56 Q 0,-1.56 2.35,-1.52 4.70,-1.49 7.33,-1.46 9.96,-1.44 13.13,-1.42 16.29,-1.40 19.81,-1.39 23.33,-1.38 26.88,-1.37 30.42,-1.36 35.42,-1.43 40.41,-1.50 44.23,-1.52 48.05,-1.55 52.39,-1.56 56.73,-1.57 59.66,-1.57 62.59,-1.58 65.47,-1.58 68.34,-1.58 71.01,-1.58 73.68,-1.58 76.26,-1.58 78.84,-1.58 81.27,-1.58 83.69,-1.58 85.69,-1.60 87.68,-1.63 89.32,-1.72 90.95,-1.81 92.91,-1.93 94.86,-2.06 96.00,-2.02 97.14,-1.99 99.19,-1.86 101.24,-1.74 103.03,-1.77 104.82,-1.80 106.39,-1.87 107.97,-1.94 109.34,-2.00 110.72,-2.07 112.27,-2.15 113.81,-2.23 114.88,-2.29 115.95,-2.35 117.16,-2.41 118.37,-2.47 119.52,-2.53 120.68,-2.58 121.82,-2.63 122.97,-2.68 123.56,-2.28 124.16,-1.88 124.54,-2.31 124.92,-2.73 125.41,-3.02 125.91,-3.30 126.47,-3.41 127.03,-3.52 127.60,-3.45 128.16,-3.37 128.67,-3.12 129.19,-2.87 129.59,-2.47 130.00,-2.07 130.25,-1.55 130.51,-1.04 130.59,-0.48 130.67,0.08 130.56,0.64 130.46,1.20 130.18,1.70 129.90,2.19 129.48,2.58 129.05,2.96 128.53,3.19 128.01,3.41 127.44,3.46 126.87,3.51 126.32,3.38 125.76,3.24 125.28,2.94 124.80,2.63 124.44,2.19 124.08,1.74 123.88,1.21 123.68,0.67 123.66,0.10 123.64,-0.46 123.81,-1.00 123.97,-1.55 124.31,-2.01 124.64,-2.48 125.10,-2.81 125.56,-3.15 126.11,-3.32 126.65,-3.49 127.22,-3.48 127.79,-3.46 128.33,-3.27 128.86,-3.07 129.31,-2.72 129.76,-2.36 130.07,-1.88 130.38,-1.40 130.52,-0.85 130.66,-0.30 130.61,0.26 130.57,0.83 130.34,1.36 130.12,1.88 130.12,1.88 130.12,1.88 126.54,3.07 122.97,4.26 121.82,4.21 120.68,4.17 119.52,4.11 118.37,4.05 117.16,3.99 115.95,3.93 114.88,3.87 113.81,3.81 112.26,3.73 110.71,3.65 109.33,3.58 107.94,3.51 106.32,3.41 104.69,3.31 102.66,3.13 100.63,2.94 98.69,2.57 96.74,2.20 95.62,2.01 94.50,1.83 92.72,1.55 90.95,1.28 89.32,1.19 87.68,1.11 85.69,1.08 83.69,1.05 81.27,1.05 78.84,1.05 76.26,1.05 73.68,1.05 71.01,1.06 68.34,1.06 65.47,1.06 62.60,1.07 59.67,1.08 56.74,1.08 52.41,1.10 48.08,1.12 44.26,1.16 40.45,1.19 35.44,1.28 30.42,1.36 26.88,1.37 23.33,1.38 19.81,1.39 16.29,1.40 13.13,1.42 9.96,1.44 7.33,1.46 4.70,1.49 2.35,1.52 0,1.56 -0.18,1.53 -0.37,1.51 -0.54,1.45 -0.72,1.38 -0.88,1.27 -1.03,1.16 -1.16,1.02 -1.28,0.88 -1.37,0.72 -1.46,0.55 -1.50,0.37 -1.55,0.18 -1.55,-0.00 -1.55,-0.18 -1.50,-0.37 -1.46,-0.55 -1.37,-0.72 -1.28,-0.88 -1.16,-1.02 -1.03,-1.16 -0.88,-1.27 -0.72,-1.38 -0.54,-1.45 -0.37,-1.51 -0.18,-1.53 0.00,-1.56 0.00,-1.56 L 0,-1.56 Z"/>
    </g>
    <g stroke="none" transform="translate(144.01 62.34) rotate(0 7.94 3.26)">
      <path fill="#8756c9" d="M 1.88,-1.88 Q 1.88,-1.88 2.49,-1.32 3.10,-0.76 4.23,-0.02 5.35,0.71 6.47,1.31 7.59,1.92 8.66,2.45 9.72,2.98 11.01,3.09 12.29,3.20 14.09,3.20 15.89,3.21 16.41,3.29 16.94,3.38 17.41,3.63 17.88,3.89 18.25,4.27 18.62,4.66 18.84,5.15 19.06,5.63 19.12,6.17 19.18,6.70 19.06,7.22 18.95,7.74 18.67,8.20 18.39,8.66 17.98,9.00 17.58,9.35 17.08,9.54 16.58,9.74 16.05,9.77 15.51,9.80 15.00,9.65 14.48,9.51 14.04,9.21 13.60,8.91 13.28,8.48 12.96,8.05 12.79,7.55 12.62,7.04 12.62,6.50 12.62,5.97 12.79,5.46 12.96,4.96 13.29,4.53 13.61,4.11 14.06,3.81 14.50,3.51 15.01,3.37 15.53,3.23 16.06,3.26 16.60,3.29 17.09,3.49 17.59,3.68 18.00,4.03 18.40,4.38 18.68,4.84 18.95,5.30 19.07,5.82 19.18,6.34 19.12,6.87 19.06,7.40 18.83,7.89 18.61,8.37 18.24,8.76 17.87,9.15 17.40,9.40 16.93,9.65 16.40,9.73 15.87,9.82 15.87,9.82 15.87,9.82 13.93,9.78 11.99,9.75 10.46,9.44 8.92,9.14 7.62,8.71 6.32,8.29 4.95,7.33 3.58,6.38 2.31,5.59 1.03,4.80 0.13,3.95 -0.76,3.10 -1.32,2.49 -1.88,1.88 -2.08,1.63 -2.27,1.37 -2.41,1.08 -2.54,0.79 -2.60,0.47 -2.65,0.16 -2.63,-0.15 -2.62,-0.48 -2.52,-0.78 -2.42,-1.09 -2.26,-1.36 -2.09,-1.64 -1.86,-1.87 -1.64,-2.09 -1.36,-2.26 -1.09,-2.42 -0.78,-2.52 -0.48,-2.62 -0.15,-2.63 0.16,-2.65 0.47,-2.60 0.79,-2.54 1.08,-2.41 1.37,-2.27 1.63,-2.08 1.88,-1.88 1.88,-1.88 L 1.88,-1.88 Z"/>
    </g>
    <g stroke="none" transform="translate(10 74.92) rotate(0 11.61 -14.87)">
      <path fill="#f28c1b" d="M 0,-2.17 Q 0,-2.17 1.99,-2.09 3.98,-2.01 5.64,-2.02 7.31,-2.03 10.24,-1.93 13.17,-1.84 15.71,-1.77 18.24,-1.70 19.67,-1.77 21.09,-1.85 21.00,-3.60 20.92,-5.35 21.06,-8.14 21.20,-10.92 21.29,-13.99 21.39,-17.05 21.35,-19.13 21.30,-21.20 20.96,-22.42 20.61,-23.65 19.68,-24.96 18.75,-26.27 17.19,-26.60 15.64,-26.93 15.53,-25.43 15.42,-23.93 15.22,-22.54 15.03,-21.14 14.86,-19.21 14.70,-17.28 14.61,-16.09 14.53,-14.89 14.52,-13.20 14.51,-11.52 14.68,-9.50 14.85,-7.47 14.92,-6.96 14.99,-6.45 14.90,-5.95 14.81,-5.44 14.56,-4.99 14.31,-4.54 13.93,-4.19 13.55,-3.84 13.08,-3.63 12.60,-3.42 12.09,-3.38 11.58,-3.33 11.07,-3.45 10.57,-3.57 10.14,-3.85 9.70,-4.12 9.37,-4.52 9.04,-4.92 8.86,-5.40 8.68,-5.88 8.66,-6.40 8.64,-6.91 8.79,-7.41 8.94,-7.90 9.23,-8.32 9.53,-8.75 9.95,-9.05 10.36,-9.36 10.86,-9.51 11.35,-9.67 11.86,-9.66 12.38,-9.65 12.86,-9.47 13.35,-9.30 13.76,-8.98 14.16,-8.66 14.44,-8.23 14.72,-7.80 14.85,-7.30 14.98,-6.80 14.94,-6.28 14.91,-5.77 14.71,-5.29 14.51,-4.82 14.17,-4.43 13.83,-4.04 13.38,-3.79 12.93,-3.53 12.43,-3.43 11.92,-3.33 11.41,-3.39 10.90,-3.46 10.43,-3.68 9.97,-3.91 9.60,-4.27 9.23,-4.63 9.00,-5.09 8.77,-5.55 8.77,-5.55 8.77,-5.55 8.54,-8.56 8.32,-11.58 8.38,-13.36 8.43,-15.14 8.46,-16.63 8.48,-18.12 8.64,-19.87 8.79,-21.61 9.08,-23.36 9.36,-25.12 9.55,-26.21 9.73,-27.30 10.22,-28.58 10.70,-29.87 11.64,-30.74 12.58,-31.62 13.79,-31.95 14.99,-32.27 16.72,-31.90 18.45,-31.53 19.71,-30.79 20.97,-30.06 22.12,-28.43 23.26,-26.81 23.73,-25.61 24.20,-24.42 24.42,-22.90 24.64,-21.38 24.82,-19.21 25.00,-17.04 25.08,-13.97 25.17,-10.89 25.27,-8.06 25.37,-5.22 25.32,-3.40 25.26,-1.57 24.87,-0.55 24.48,0.46 22.79,1.16 21.10,1.85 19.67,1.77 18.24,1.70 15.71,1.77 13.17,1.84 10.24,1.93 7.31,2.03 5.64,2.02 3.98,2.01 1.99,2.09 0,2.17 -0.25,2.14 -0.51,2.10 -0.76,2.01 -1.00,1.92 -1.22,1.77 -1.44,1.62 -1.61,1.43 -1.78,1.23 -1.90,1.00 -2.03,0.77 -2.09,0.51 -2.15,0.26 -2.15,-0.00 -2.15,-0.26 -2.09,-0.51 -2.03,-0.77 -1.90,-1.00 -1.78,-1.23 -1.61,-1.43 -1.44,-1.62 -1.22,-1.77 -1.00,-1.92 -0.76,-2.01 -0.51,-2.10 -0.25,-2.14 0.00,-2.17 0.00,-2.17 L 0,-2.17 Z"/>
    </g>
    <g stroke="none" transform="translate(160.30 44.82) rotate(0 -6.11 14.87)">
      <path fill="#8756c9" d="M 0.42,2.53 Q 0.42,2.53 -0.98,2.76 -2.39,2.98 -3.54,3.22 -4.70,3.45 -6.00,3.83 -7.29,4.21 -7.89,6.09 -8.49,7.97 -8.53,9.24 -8.57,10.50 -8.72,11.97 -8.87,13.44 -8.89,14.66 -8.91,15.89 -8.95,17.05 -8.99,18.21 -9.03,19.42 -9.06,20.62 -9.09,21.83 -9.12,23.05 -9.10,26.39 -9.08,29.73 -9.16,30.23 -9.24,30.73 -9.48,31.18 -9.72,31.62 -10.09,31.97 -10.45,32.32 -10.91,32.54 -11.38,32.75 -11.88,32.80 -12.38,32.86 -12.88,32.75 -13.37,32.64 -13.81,32.38 -14.24,32.12 -14.57,31.73 -14.90,31.34 -15.09,30.87 -15.28,30.40 -15.30,29.89 -15.33,29.39 -15.19,28.90 -15.06,28.41 -14.77,27.99 -14.49,27.57 -14.09,27.26 -13.68,26.96 -13.20,26.79 -12.72,26.63 -12.21,26.63 -11.71,26.63 -11.22,26.79 -10.74,26.96 -10.34,27.26 -9.94,27.57 -9.65,27.99 -9.37,28.41 -9.23,28.90 -9.10,29.39 -9.12,29.90 -9.15,30.40 -9.34,30.87 -9.53,31.34 -9.86,31.73 -10.18,32.12 -10.62,32.38 -11.05,32.64 -11.55,32.75 -12.05,32.86 -12.55,32.80 -13.05,32.75 -13.51,32.53 -13.97,32.32 -14.34,31.97 -14.71,31.62 -14.95,31.17 -15.19,30.73 -15.27,30.23 -15.35,29.73 -15.35,29.73 -15.35,29.73 -15.33,26.38 -15.31,23.04 -15.33,21.82 -15.35,20.60 -15.38,19.38 -15.41,18.16 -15.40,15.99 -15.40,13.81 -15.21,12.70 -15.01,11.59 -14.94,10.17 -14.87,8.74 -14.64,7.13 -14.40,5.51 -13.94,3.95 -13.48,2.39 -12.57,1.14 -11.66,-0.09 -9.92,-0.66 -8.19,-1.22 -6.91,-1.43 -5.64,-1.65 -4.43,-1.85 -3.23,-2.05 -1.82,-2.29 -0.42,-2.53 -0.11,-2.54 0.19,-2.56 0.50,-2.50 0.80,-2.44 1.08,-2.30 1.36,-2.17 1.60,-1.98 1.84,-1.78 2.03,-1.54 2.22,-1.29 2.34,-1.00 2.46,-0.72 2.51,-0.41 2.56,-0.11 2.54,0.19 2.51,0.50 2.42,0.79 2.32,1.09 2.16,1.35 1.99,1.61 1.77,1.83 1.55,2.04 1.28,2.20 1.01,2.36 0.71,2.44 0.42,2.53 0.42,2.53 L 0.42,2.53 Z"/>
    </g>
    <g stroke="none" transform="translate(37.94 10.16) rotate(0 -1.67 15.07)">
      <path fill="#d4b100" d="M 0.96,-2.38 Q 0.96,-2.38 1.82,-2.08 2.67,-1.78 3.84,-1.22 5.02,-0.67 6.03,-0.05 7.04,0.56 7.77,1.61 8.50,2.66 8.93,3.76 9.36,4.85 9.59,5.90 9.81,6.95 9.90,8.13 10.00,9.31 10.26,10.40 10.52,11.49 10.56,12.57 10.60,13.66 10.64,14.84 10.68,16.03 10.70,17.13 10.72,18.23 10.73,19.47 10.75,20.71 10.76,21.78 10.76,22.86 10.25,24.35 9.75,25.84 8.90,27.30 8.05,28.75 6.93,29.77 5.81,30.78 4.98,31.59 4.16,32.39 3.20,32.87 2.24,33.35 0.93,33.63 -0.37,33.91 -1.48,33.92 -2.60,33.94 -4.15,33.72 -5.69,33.50 -7.01,33.19 -8.32,32.89 -9.89,32.32 -11.45,31.75 -12.01,31.49 -12.57,31.23 -13.02,30.80 -13.47,30.38 -13.76,29.83 -14.05,29.28 -14.15,28.67 -14.25,28.06 -14.15,27.45 -14.05,26.84 -13.75,26.29 -13.46,25.74 -13.01,25.32 -12.56,24.89 -12.00,24.63 -11.44,24.37 -10.82,24.31 -10.21,24.24 -9.60,24.38 -9.00,24.51 -8.47,24.83 -7.94,25.15 -7.54,25.62 -7.14,26.10 -6.91,26.67 -6.68,27.25 -6.65,27.87 -6.61,28.49 -6.78,29.08 -6.95,29.68 -7.30,30.19 -7.64,30.70 -8.14,31.08 -8.63,31.45 -9.22,31.65 -9.81,31.85 -10.43,31.84 -11.05,31.84 -11.63,31.64 -12.22,31.45 -12.71,31.07 -13.20,30.69 -13.55,30.18 -13.90,29.67 -14.06,29.07 -14.23,28.47 -14.19,27.85 -14.16,27.24 -13.93,26.66 -13.70,26.09 -13.29,25.61 -12.89,25.14 -12.36,24.82 -11.83,24.51 -11.22,24.37 -10.62,24.24 -10.00,24.31 -9.39,24.38 -9.39,24.38 -9.39,24.38 -7.32,25.11 -5.24,25.84 -4.13,26.08 -3.02,26.33 -1.79,26.42 -0.56,26.52 0.44,25.82 1.46,25.13 2.15,24.22 2.84,23.32 3.13,22.01 3.42,20.71 3.43,19.47 3.45,18.23 3.47,17.13 3.49,16.03 3.53,14.85 3.56,13.66 3.71,12.55 3.86,11.45 3.59,10.31 3.31,9.17 3.20,8.10 3.10,7.03 3.14,5.81 3.19,4.59 1.93,3.86 0.68,3.14 -0.14,2.76 -0.96,2.38 -1.23,2.23 -1.50,2.08 -1.73,1.87 -1.96,1.66 -2.13,1.40 -2.30,1.14 -2.40,0.85 -2.51,0.56 -2.54,0.25 -2.57,-0.05 -2.53,-0.36 -2.48,-0.67 -2.36,-0.95 -2.25,-1.24 -2.07,-1.49 -1.88,-1.75 -1.65,-1.95 -1.41,-2.15 -1.13,-2.28 -0.85,-2.42 -0.55,-2.49 -0.25,-2.56 0.05,-2.55 0.36,-2.54 0.66,-2.46 0.96,-2.38 0.96,-2.38 L 0.96,-2.38 Z"/>
    </g>
    <g stroke="none" transform="translate(43.36 28.88) rotate(0 -5.84 0)">
      <path fill="#d4b100" d="M 0,2.59 Q 0,2.59 -0.83,2.63 -1.67,2.68 -2.76,2.75 -3.85,2.82 -4.98,2.90 -6.12,2.98 -8.89,3.05 -11.67,3.13 -12.17,3.05 -12.67,2.96 -13.12,2.73 -13.57,2.49 -13.91,2.12 -14.26,1.75 -14.48,1.29 -14.69,0.83 -14.74,0.33 -14.80,-0.16 -14.69,-0.66 -14.58,-1.15 -14.32,-1.59 -14.06,-2.02 -13.67,-2.35 -13.29,-2.68 -12.81,-2.87 -12.34,-3.05 -11.84,-3.08 -11.33,-3.11 -10.84,-2.97 -10.35,-2.84 -9.94,-2.55 -9.52,-2.27 -9.21,-1.87 -8.90,-1.46 -8.74,-0.98 -8.58,-0.50 -8.58,0.00 -8.58,0.50 -8.74,0.98 -8.90,1.46 -9.21,1.87 -9.52,2.27 -9.94,2.55 -10.36,2.84 -10.84,2.97 -11.33,3.11 -11.84,3.08 -12.34,3.05 -12.82,2.87 -13.29,2.68 -13.67,2.35 -14.06,2.02 -14.32,1.59 -14.58,1.15 -14.69,0.66 -14.80,0.16 -14.74,-0.33 -14.69,-0.83 -14.48,-1.29 -14.26,-1.75 -13.91,-2.12 -13.57,-2.49 -13.12,-2.73 -12.67,-2.96 -12.17,-3.05 -11.67,-3.13 -11.67,-3.13 -11.67,-3.13 -8.89,-3.05 -6.12,-2.98 -4.98,-2.90 -3.85,-2.82 -2.76,-2.75 -1.67,-2.68 -0.83,-2.63 0,-2.59 0.31,-2.56 0.62,-2.52 0.91,-2.41 1.20,-2.30 1.46,-2.12 1.72,-1.94 1.93,-1.71 2.13,-1.47 2.28,-1.19 2.42,-0.92 2.50,-0.61 2.57,-0.31 2.57,0.00 2.57,0.31 2.50,0.61 2.42,0.92 2.28,1.19 2.13,1.47 1.93,1.71 1.72,1.94 1.46,2.12 1.20,2.30 0.91,2.41 0.62,2.52 0.31,2.56 -0.00,2.59 -0.00,2.59 L 0,2.59 Z"/>
    </g>
    <g stroke="none" transform="translate(51.42 22.39) rotate(0 18.65 -1.64)">
      <path fill="#2fa84f" d="M 2.46,-0.57 Q 2.46,-0.57 2.86,0.57 3.26,1.72 3.98,2.76 4.71,3.79 5.75,4.41 6.78,5.03 7.86,5.58 8.93,6.13 10.03,5.91 11.13,5.68 11.74,4.72 12.35,3.76 12.98,2.59 13.61,1.41 13.93,0.39 14.25,-0.61 14.62,-1.93 14.99,-3.24 15.36,-4.67 15.72,-6.10 16.29,-7.28 16.85,-8.47 17.27,-9.45 17.69,-10.43 18.51,-11.80 19.32,-13.17 20.37,-14.11 21.42,-15.05 22.60,-15.44 23.79,-15.83 25.25,-15.94 26.72,-16.06 28.47,-15.94 30.22,-15.81 31.40,-15.16 32.58,-14.50 33.66,-13.62 34.73,-12.74 35.79,-11.70 36.86,-10.67 37.71,-9.39 38.57,-8.10 39.33,-6.95 40.10,-5.79 40.55,-4.62 41.00,-3.45 41.14,-3.01 41.27,-2.58 41.30,-2.13 41.32,-1.67 41.24,-1.23 41.16,-0.78 40.97,-0.37 40.79,0.04 40.51,0.39 40.23,0.75 39.87,1.03 39.51,1.31 39.10,1.50 38.68,1.68 38.24,1.76 37.79,1.84 37.34,1.82 36.88,1.79 36.45,1.65 36.02,1.52 35.63,1.28 35.24,1.05 34.92,0.72 34.60,0.40 34.37,0.01 34.13,-0.36 34.07,-1.74 34.00,-3.12 34.29,-3.66 34.58,-4.19 35.02,-4.61 35.46,-5.03 36.02,-5.28 36.57,-5.54 37.18,-5.60 37.78,-5.66 38.38,-5.53 38.97,-5.40 39.49,-5.08 40.01,-4.77 40.41,-4.30 40.80,-3.84 41.02,-3.27 41.25,-2.70 41.28,-2.09 41.31,-1.49 41.14,-0.90 40.98,-0.31 40.63,0.18 40.29,0.68 39.81,1.05 39.32,1.42 38.74,1.61 38.16,1.80 37.55,1.80 36.95,1.80 36.37,1.60 35.79,1.41 35.31,1.03 34.82,0.66 34.48,0.16 34.14,-0.34 33.98,-0.92 33.82,-1.51 33.86,-2.12 33.89,-2.73 34.12,-3.29 34.35,-3.86 34.74,-4.32 35.14,-4.78 35.66,-5.10 36.19,-5.41 36.78,-5.54 37.38,-5.67 37.98,-5.60 38.59,-5.53 39.14,-5.27 39.69,-5.01 40.13,-4.59 40.57,-4.17 40.86,-3.63 41.14,-3.09 41.24,-2.49 41.33,-1.89 41.17,-2.67 41.00,-3.45 41.14,-3.01 41.27,-2.58 41.30,-2.13 41.32,-1.67 41.24,-1.23 41.16,-0.78 40.97,-0.37 40.79,0.04 40.51,0.39 40.23,0.75 39.87,1.03 39.51,1.31 39.10,1.49 38.68,1.68 38.24,1.76 37.79,1.84 37.34,1.82 36.88,1.79 36.45,1.65 36.02,1.52 35.63,1.28 35.24,1.05 34.92,0.72 34.60,0.40 34.37,0.01 34.13,-0.36 33.73,-1.47 33.33,-2.57 32.71,-3.51 32.09,-4.44 31.31,-5.52 30.52,-6.59 29.19,-7.63 27.86,-8.67 26.43,-8.72 25.01,-8.78 24.50,-7.71 23.99,-6.65 23.39,-5.31 22.80,-3.96 22.48,-2.85 22.16,-1.73 21.78,-0.28 21.40,1.16 20.89,2.52 20.38,3.87 19.83,4.95 19.28,6.03 18.70,7.00 18.12,7.97 17.51,8.86 16.91,9.75 16.04,10.50 15.18,11.25 13.75,11.91 12.32,12.56 11.17,12.52 10.03,12.48 8.96,12.41 7.90,12.35 6.68,11.80 5.46,11.25 4.18,10.57 2.89,9.89 1.87,9.00 0.85,8.11 0.09,7.02 -0.66,5.94 -1.19,4.66 -1.72,3.38 -2.09,2.21 -2.46,1.05 -2.52,0.74 -2.58,0.44 -2.57,0.12 -2.55,-0.18 -2.46,-0.48 -2.38,-0.78 -2.22,-1.05 -2.06,-1.32 -1.84,-1.55 -1.63,-1.77 -1.36,-1.94 -1.10,-2.10 -0.80,-2.20 -0.50,-2.30 -0.19,-2.32 0.11,-2.35 0.42,-2.30 0.73,-2.25 1.01,-2.12 1.30,-2.00 1.55,-1.81 1.80,-1.62 2.00,-1.38 2.20,-1.14 2.33,-0.85 2.46,-0.57 2.46,-0.57 L 2.46,-0.57 Z"/>
    </g>
    <g stroke="none" transform="translate(64.10 72.48) rotate(0 -0.68 -10.34)">
      <path fill="#AAA" d="M -4.50,1.50 Q -4.50,1.50 -5.20,-0.06 -5.90,-1.63 -6.53,-3.01 -7.16,-4.38 -7.77,-5.60 -8.38,-6.82 -8.70,-7.93 -9.02,-9.04 -9.27,-10.28 -9.52,-11.53 -9.60,-12.63 -9.68,-13.74 -9.48,-14.92 -9.28,-16.11 -8.80,-17.25 -8.32,-18.40 -7.40,-19.56 -6.48,-20.71 -5.60,-21.73 -4.73,-22.75 -3.49,-23.55 -2.26,-24.35 -0.89,-24.36 0.46,-24.38 1.50,-23.88 2.53,-23.37 3.16,-22.17 3.79,-20.97 4.18,-19.85 4.57,-18.74 4.95,-17.68 5.32,-16.63 5.90,-15.16 6.48,-13.70 6.81,-12.57 7.14,-11.45 7.42,-9.84 7.71,-8.23 7.88,-6.92 8.05,-5.61 8.07,-4.16 8.10,-2.71 7.69,-0.89 7.28,0.92 5.95,1.82 4.61,2.71 3.22,2.74 1.82,2.77 0.73,2.38 -0.36,1.99 -1.69,0.85 -3.02,-0.28 -3.74,-1.22 -4.47,-2.17 -5.07,-3.52 -5.67,-4.87 -5.99,-6.13 -6.31,-7.40 -6.55,-8.82 -6.79,-10.25 -6.88,-11.38 -6.98,-12.51 -6.94,-13.75 -6.90,-15.00 -6.63,-16.38 -6.36,-17.75 -5.91,-19.12 -5.45,-20.49 -4.66,-21.44 -3.88,-22.39 -2.68,-22.76 -1.48,-23.12 -0.09,-22.71 1.30,-22.29 2.03,-21.48 2.75,-20.66 3.28,-19.45 3.81,-18.23 4.02,-17.12 4.23,-16.02 4.46,-14.53 4.68,-13.05 4.85,-11.41 5.01,-9.77 5.14,-8.55 5.27,-7.32 5.32,-6.14 5.37,-4.97 5.13,-3.81 4.89,-2.66 3.28,-1.59 1.67,-0.52 0.49,-0.71 -0.67,-0.89 -1.52,-1.72 -2.37,-2.54 -3.46,-4.70 -4.56,-6.86 -5.04,-8.17 -5.52,-9.49 -5.88,-10.85 -6.25,-12.21 -6.59,-14.07 -6.94,-15.92 -6.50,-17.85 -6.06,-19.78 -4.57,-21.19 -3.09,-22.61 -1.76,-23.19 -0.44,-23.76 0.66,-23.97 1.76,-24.17 3.38,-23.58 4.99,-22.99 5.60,-22.08 6.21,-21.17 6.59,-19.88 6.98,-18.59 7.38,-16.83 7.78,-15.06 8.03,-13.46 8.28,-11.86 8.44,-10.56 8.60,-9.26 8.59,-7.86 8.57,-6.45 8.21,-5.19 7.84,-3.93 7.11,-2.96 6.37,-1.98 5.44,-1.06 4.51,-0.14 3.66,0.66 2.81,1.46 1.62,2.02 0.42,2.58 -1.50,2.02 -3.42,1.45 -3.98,0.49 -4.55,-0.46 -5.03,-1.91 -5.51,-3.36 -5.72,-5.40 -5.92,-7.43 -5.86,-8.98 -5.79,-10.53 -5.72,-11.72 -5.64,-12.92 -5.09,-14.59 -4.54,-16.26 -3.81,-17.90 -3.07,-19.54 -1.67,-20.69 -0.27,-21.84 0.80,-22.05 1.88,-22.26 3.02,-22.15 4.17,-22.04 6.11,-19.37 8.05,-16.70 8.08,-16.15 8.10,-15.59 7.95,-15.06 7.80,-14.53 7.49,-14.07 7.18,-13.61 6.74,-13.28 6.29,-12.94 5.77,-12.77 5.24,-12.59 4.69,-12.59 4.13,-12.60 3.61,-12.78 3.08,-12.95 2.64,-13.29 2.20,-13.63 1.89,-14.09 1.58,-14.55 1.44,-15.08 1.29,-15.62 1.32,-16.17 1.35,-16.72 1.56,-17.24 1.77,-17.75 2.13,-18.17 2.49,-18.60 2.97,-18.88 3.44,-19.16 3.98,-19.28 4.52,-19.40 5.08,-19.34 5.63,-19.28 6.13,-19.04 6.63,-18.81 7.03,-18.42 7.43,-18.04 7.69,-17.55 7.95,-17.06 8.04,-16.51 8.13,-15.96 8.03,-15.42 7.94,-14.87 7.68,-14.38 7.42,-13.89 7.02,-13.51 6.61,-13.13 6.11,-12.90 5.60,-12.67 5.05,-12.61 4.50,-12.56 3.96,-12.68 3.42,-12.80 2.94,-13.09 2.47,-13.37 2.11,-13.80 1.76,-14.22 1.55,-14.74 1.35,-15.25 1.35,-15.25 1.35,-15.25 1.97,-15.77 2.59,-16.28 2.09,-15.23 1.60,-14.19 1.31,-12.41 1.01,-10.63 1.18,-8.51 1.34,-6.40 1.48,-5.02 1.62,-3.64 0.52,-4.42 -0.57,-5.21 0.50,-5.96 1.57,-6.72 1.63,-8.15 1.68,-9.59 1.49,-10.86 1.29,-12.12 0.98,-13.66 0.67,-15.21 0.20,-16.90 -0.25,-18.59 0.79,-17.97 1.85,-17.36 0.71,-17.02 -0.42,-16.68 -0.20,-15.37 0.02,-14.06 0.36,-13.04 0.70,-12.01 1.17,-10.98 1.64,-9.95 2.56,-8.44 3.48,-6.94 2.19,-7.17 0.90,-7.40 -0.48,-6.31 -1.87,-5.22 -1.90,-6.40 -1.93,-7.58 -2.13,-9.05 -2.33,-10.52 -2.54,-11.93 -2.75,-13.34 -2.87,-14.84 -2.98,-16.34 -1.20,-16.14 0.58,-15.94 0.34,-14.81 0.10,-13.69 0.13,-12.59 0.15,-11.50 0.34,-10.35 0.52,-9.20 0.93,-7.93 1.33,-6.66 1.74,-5.48 2.14,-4.30 1.37,-3.02 0.59,-1.75 0.59,-2.99 0.58,-4.24 0.47,-5.38 0.37,-6.52 0.42,-7.93 0.48,-9.35 -0.01,-10.40 -0.52,-11.45 -1.03,-12.70 -1.54,-13.95 -1.88,-15.06 -2.22,-16.17 -2.32,-17.32 -2.42,-18.48 -1.21,-18.15 -0.00,-17.82 -1.02,-16.80 -2.03,-15.77 -2.75,-14.93 -3.47,-14.09 -3.57,-12.90 -3.68,-11.71 -3.61,-10.21 -3.55,-8.71 -3.17,-7.55 -2.79,-6.38 -2.19,-5.05 -1.58,-3.73 -0.78,-2.20 0.00,-0.68 0.10,-0.40 0.20,-0.11 0.23,0.18 0.25,0.48 0.21,0.78 0.16,1.08 0.05,1.36 -0.06,1.64 -0.24,1.88 -0.42,2.12 -0.65,2.32 -0.88,2.51 -1.16,2.64 -1.43,2.77 -1.72,2.84 -2.02,2.90 -2.32,2.89 -2.62,2.88 -2.91,2.80 -3.20,2.72 -3.47,2.57 -3.73,2.42 -3.95,2.21 -4.17,2.00 -4.33,1.75 -4.50,1.50 -4.50,1.50 L -4.50,1.50 Z"/>
    </g>
    <g stroke="none" transform="translate(100.54 69.26) rotate(0 1.85 -10.96)">
      <path fill="#AAA" d="M -3.77,-1.42 Q -3.77,-1.42 -3.83,-2.68 -3.89,-3.95 -4.08,-5.20 -4.26,-6.45 -4.37,-7.85 -4.48,-9.26 -4.53,-10.34 -4.58,-11.43 -4.28,-13.11 -3.98,-14.78 -2.68,-16.02 -1.38,-17.26 -0.33,-17.52 0.72,-17.79 2.41,-17.56 4.11,-17.33 5.02,-16.49 5.94,-15.65 6.69,-14.66 7.43,-13.67 8.04,-12.68 8.64,-11.70 9.19,-10.33 9.74,-8.97 9.83,-7.71 9.92,-6.46 9.45,-4.69 8.99,-2.93 8.46,-1.90 7.93,-0.86 7.27,0.12 6.61,1.11 5.42,2.06 4.24,3.02 2.41,2.90 0.57,2.78 -0.50,1.61 -1.58,0.45 -2.18,-0.70 -2.78,-1.87 -3.32,-3.38 -3.86,-4.89 -4.00,-7.09 -4.15,-9.30 -3.93,-10.46 -3.71,-11.62 -3.28,-12.63 -2.86,-13.63 -2.28,-14.59 -1.71,-15.55 -0.32,-16.83 1.06,-18.11 2.93,-18.01 4.81,-17.92 5.76,-17.34 6.71,-16.77 7.18,-15.50 7.65,-14.24 7.97,-12.91 8.29,-11.58 8.49,-9.85 8.68,-8.13 8.59,-6.51 8.49,-4.88 8.16,-3.64 7.83,-2.39 7.09,-1.13 6.35,0.12 5.52,0.96 4.68,1.79 3.47,2.48 2.25,3.17 0.56,2.98 -1.12,2.79 -2.12,2.21 -3.12,1.64 -3.95,-0.01 -4.79,-1.67 -5.38,-3.58 -5.96,-5.48 -6.23,-7.13 -6.50,-8.79 -6.54,-9.96 -6.59,-11.12 -6.12,-12.63 -5.65,-14.13 -4.81,-15.09 -3.97,-16.04 -3.04,-16.59 -2.11,-17.13 -0.76,-17.46 0.58,-17.79 1.79,-17.83 3.01,-17.86 4.05,-17.61 5.09,-17.36 6.13,-16.59 7.17,-15.83 8.03,-14.71 8.88,-13.58 9.51,-11.56 10.14,-9.54 10.25,-8.14 10.36,-6.75 10.30,-5.10 10.23,-3.45 9.62,-2.02 9.00,-0.59 8.14,0.26 7.29,1.12 6.30,1.52 5.32,1.93 3.97,1.89 2.62,1.85 1.26,0.86 -0.10,-0.11 -1.05,-1.62 -2.01,-3.14 -2.72,-5.10 -3.43,-7.06 -3.75,-8.94 -4.06,-10.83 -4.16,-12.22 -4.25,-13.61 -4.11,-14.85 -3.97,-16.09 -3.27,-17.42 -2.57,-18.74 -1.69,-19.42 -0.82,-20.09 0.24,-20.43 1.30,-20.78 2.70,-20.46 4.09,-20.14 4.98,-19.25 5.88,-18.35 6.59,-17.02 7.31,-15.69 7.80,-14.46 8.30,-13.22 8.62,-12.09 8.93,-10.96 9.07,-9.56 9.20,-8.17 9.06,-6.51 8.93,-4.85 8.29,-3.56 7.66,-2.26 6.79,-1.32 5.93,-0.38 5.07,0.25 4.22,0.89 3.02,1.14 1.82,1.39 0.21,0.93 -1.39,0.48 -2.27,-0.54 -3.16,-1.56 -4.33,-3.83 -5.50,-6.10 -5.93,-7.11 -6.37,-8.13 -6.75,-9.93 -7.13,-11.72 -6.90,-13.29 -6.67,-14.85 -6.08,-15.74 -5.48,-16.63 -4.34,-17.56 -3.20,-18.50 -1.63,-19.12 -0.06,-19.74 1.32,-19.85 2.71,-19.96 4.35,-19.40 5.99,-18.84 6.78,-17.94 7.57,-17.05 8.11,-15.87 8.64,-14.68 9.07,-13.29 9.49,-11.89 9.64,-10.49 9.79,-9.08 9.81,-7.97 9.83,-6.87 9.49,-5.27 9.15,-3.66 8.61,-2.67 8.07,-1.68 7.19,-0.81 6.31,0.05 4.77,0.61 3.23,1.17 2.07,1.03 0.90,0.89 -0.91,-0.70 -2.72,-2.29 -3.55,-3.88 -4.38,-5.46 -4.98,-7.29 -5.58,-9.11 -5.91,-10.12 -6.24,-11.14 -6.47,-12.97 -6.71,-14.79 -5.95,-16.99 -5.20,-19.18 -3.98,-20.44 -2.77,-21.70 -1.60,-22.08 -0.43,-22.45 0.96,-22.41 2.37,-22.37 3.94,-21.80 5.52,-21.23 6.70,-20.41 7.89,-19.59 8.54,-18.75 9.20,-17.91 9.63,-16.70 10.06,-15.50 10.18,-14.07 10.30,-12.65 10.33,-11.51 10.35,-10.38 10.11,-8.83 9.86,-7.29 9.35,-5.95 8.83,-4.62 8.13,-3.52 7.43,-2.42 5.73,-1.24 4.03,-0.05 2.85,0.05 1.67,0.17 0.37,-0.14 -0.91,-0.46 -1.89,-1.17 -2.88,-1.88 -3.71,-2.81 -4.54,-3.75 -5.31,-4.94 -6.09,-6.13 -6.67,-7.36 -7.25,-8.60 -7.54,-10.08 -7.82,-11.57 -7.86,-12.91 -7.89,-14.26 -7.46,-15.65 -7.04,-17.04 -6.40,-18.04 -5.76,-19.05 -4.46,-19.84 -3.17,-20.64 -2.08,-20.78 -0.99,-20.91 0.38,-20.82 1.76,-20.73 2.99,-20.26 4.22,-19.78 5.34,-19.06 6.46,-18.35 7.30,-17.42 8.15,-16.49 8.84,-15.14 9.54,-13.80 9.83,-12.74 10.12,-11.68 10.28,-10.23 10.44,-8.78 10.55,-7.48 10.66,-6.17 10.57,-4.64 10.47,-3.11 10.00,-1.95 9.53,-0.78 8.79,0.09 8.04,0.98 6.27,1.57 4.50,2.15 2.60,1.66 0.70,1.16 -0.41,0.25 -1.52,-0.65 -2.27,-1.44 -3.02,-2.23 -3.68,-3.16 -4.34,-4.10 -4.95,-5.69 -5.57,-7.28 -5.83,-8.59 -6.10,-9.89 -6.20,-10.99 -6.30,-12.09 -6.32,-13.29 -6.33,-14.49 -6.13,-16.22 -5.93,-17.95 -5.41,-19.10 -4.88,-20.25 -4.13,-21.22 -3.38,-22.19 -2.38,-23.00 -1.38,-23.81 -0.18,-24.35 1.01,-24.89 2.82,-24.89 4.62,-24.89 5.81,-24.25 7.00,-23.62 7.96,-22.69 8.92,-21.75 9.65,-20.85 10.38,-19.94 10.87,-18.67 11.36,-17.40 11.45,-16.04 11.54,-14.68 11.55,-13.46 11.56,-12.23 11.49,-10.88 11.42,-9.53 11.07,-8.47 10.73,-7.41 10.23,-6.23 9.74,-5.05 9.15,-4.00 8.56,-2.96 7.72,-1.89 6.88,-0.82 5.93,-0.23 4.98,0.36 3.40,0.79 1.81,1.22 0.59,1.22 -0.61,1.23 -2.38,0.26 -4.14,-0.70 -4.69,-1.64 -5.24,-2.58 -5.36,-3.42 -5.48,-4.27 -5.47,-4.73 -5.46,-5.18 -5.34,-5.63 -5.21,-6.07 -4.99,-6.47 -4.77,-6.87 -4.46,-7.20 -4.14,-7.54 -3.76,-7.79 -3.38,-8.04 -2.94,-8.19 -2.51,-8.34 -2.06,-8.38 -1.60,-8.43 -1.15,-8.36 -0.69,-8.29 -0.27,-8.12 0.14,-7.94 0.51,-7.67 0.88,-7.40 1.18,-7.05 1.47,-6.70 1.67,-6.29 1.88,-5.88 1.98,-5.43 2.07,-4.99 2.22,-3.58 2.36,-2.17 2.37,-1.59 2.38,-1.02 2.21,-0.47 2.03,0.07 1.69,0.53 1.35,1.00 0.88,1.33 0.41,1.66 -0.13,1.83 -0.68,1.99 -1.26,1.97 -1.84,1.95 -2.37,1.75 -2.91,1.54 -3.36,1.18 -3.80,0.81 -4.11,0.32 -4.42,-0.15 -4.55,-0.71 -4.68,-1.27 -4.63,-1.85 -4.58,-2.42 -4.35,-2.95 -4.11,-3.47 -3.73,-3.90 -3.34,-4.33 -2.83,-4.60 -2.33,-4.88 -1.76,-4.99 -1.20,-5.09 -0.63,-5.01 -0.06,-4.92 0.45,-4.66 0.96,-4.40 1.36,-3.99 1.77,-3.58 2.02,-3.06 2.27,-2.54 2.34,-1.97 2.41,-1.40 2.30,-0.84 2.19,-0.27 1.90,0.22 1.61,0.72 1.18,1.10 0.75,1.48 0.22,1.70 -0.31,1.92 -0.88,1.96 -1.45,2.00 -2.01,1.86 -2.57,1.72 -3.05,1.40 -3.53,1.09 -3.89,0.64 -4.25,0.18 -4.44,-0.35 -4.64,-0.89 -4.63,-0.89 -4.63,-0.89 -5.06,-2.58 -5.48,-4.27 -5.47,-4.73 -5.46,-5.18 -5.34,-5.63 -5.21,-6.07 -4.99,-6.47 -4.77,-6.87 -4.46,-7.20 -4.14,-7.54 -3.76,-7.79 -3.38,-8.04 -2.94,-8.19 -2.51,-8.34 -2.06,-8.38 -1.60,-8.43 -1.15,-8.36 -0.69,-8.29 -0.27,-8.12 0.14,-7.94 0.51,-7.67 0.88,-7.40 1.18,-7.05 1.47,-6.70 1.67,-6.29 1.88,-5.88 1.97,-5.44 2.07,-4.99 1.97,-5.14 1.87,-5.28 0.81,-5.78 -0.24,-6.28 0.88,-6.37 2.00,-6.46 2.73,-7.82 3.47,-9.17 3.86,-10.30 4.24,-11.42 4.25,-12.63 4.25,-13.84 4.26,-15.03 4.26,-16.22 3.15,-16.99 2.04,-17.76 1.22,-16.83 0.40,-15.91 0.42,-14.32 0.44,-12.73 0.65,-11.28 0.87,-9.83 1.53,-8.56 2.18,-7.29 2.69,-6.05 3.19,-4.81 3.19,-6.07 3.18,-7.32 3.02,-8.92 2.86,-10.51 2.27,-11.62 1.68,-12.74 0.83,-13.62 -0.02,-14.51 -0.25,-13.39 -0.48,-12.28 -0.07,-11.05 0.33,-9.82 1.20,-8.60 2.07,-7.39 2.56,-8.48 3.05,-9.58 3.10,-10.97 3.14,-12.36 2.98,-13.57 2.82,-14.78 1.87,-15.60 0.92,-16.43 0.33,-15.27 -0.26,-14.11 0.09,-12.78 0.45,-11.45 1.04,-10.19 1.63,-8.94 2.00,-7.48 2.36,-6.01 2.44,-7.08 2.52,-8.14 2.42,-9.50 2.32,-10.86 1.90,-11.88 1.49,-12.89 0.61,-12.29 -0.26,-11.68 0.17,-10.51 0.61,-9.35 1.71,-7.47 2.80,-5.60 1.59,-5.37 0.38,-5.15 1.16,-5.88 1.94,-6.61 1.92,-7.84 1.90,-9.07 1.51,-10.36 1.12,-11.65 0.67,-12.81 0.23,-13.97 1.56,-14.10 2.90,-14.23 2.91,-13.09 2.93,-11.94 3.19,-10.52 3.46,-9.10 3.96,-7.87 4.46,-6.63 5.09,-5.64 5.72,-4.65 4.41,-5.29 3.11,-5.92 3.07,-7.18 3.02,-8.44 3.01,-9.54 3.00,-10.64 1.76,-10.53 0.52,-10.43 0.71,-8.91 0.90,-7.40 1.33,-6.10 1.76,-4.81 2.23,-3.82 2.70,-2.82 1.11,-3.01 -0.47,-3.20 0.40,-4.18 1.28,-5.17 1.43,-6.32 1.58,-7.48 1.40,-8.78 1.22,-10.08 0.97,-11.37 0.72,-12.66 2.46,-12.11 4.20,-11.56 3.61,-10.39 3.02,-9.23 3.20,-7.70 3.38,-6.17 3.71,-4.94 4.05,-3.71 2.77,-3.97 1.50,-4.23 2.15,-5.50 2.80,-6.76 2.51,-7.87 2.22,-8.97 1.88,-10.21 1.54,-11.44 1.49,-10.36 1.44,-9.28 1.38,-8.04 1.32,-6.80 1.36,-5.49 1.39,-4.18 1.44,-2.91 1.49,-1.65 1.47,-1.33 1.44,-1.01 1.34,-0.71 1.24,-0.41 1.07,-0.14 0.90,0.12 0.68,0.34 0.45,0.56 0.17,0.72 -0.09,0.88 -0.40,0.97 -0.70,1.06 -1.02,1.07 -1.34,1.09 -1.65,1.02 -1.96,0.96 -2.25,0.83 -2.53,0.69 -2.78,0.49 -3.03,0.29 -3.22,0.04 -3.41,-0.21 -3.54,-0.50 -3.66,-0.79 -3.71,-1.10 -3.77,-1.42 -3.77,-1.42 L -3.77,-1.42 Z"/>
    </g>
    <g stroke="none" transform="translate(66.28 57.01) rotate(0 0 0)">
      <path fill="#555" d="M 3.14,-3.14 Q 3.14,-3.14 3.55,-2.55 3.97,-1.97 4.18,-1.28 4.40,-0.59 4.38,0.11 4.36,0.83 4.11,1.51 3.86,2.18 3.41,2.74 2.96,3.30 2.36,3.69 1.75,4.08 1.05,4.25 0.36,4.42 -0.35,4.36 -1.07,4.31 -1.73,4.02 -2.39,3.74 -2.92,3.26 -3.46,2.78 -3.81,2.15 -4.16,1.53 -4.30,0.82 -4.43,0.11 -4.34,-0.59 -4.24,-1.30 -3.92,-1.94 -3.60,-2.59 -3.09,-3.09 -2.59,-3.60 -1.94,-3.92 -1.30,-4.24 -0.59,-4.34 0.12,-4.43 0.82,-4.30 1.53,-4.16 2.15,-3.81 2.78,-3.46 3.26,-2.92 3.74,-2.39 4.02,-1.73 4.31,-1.07 4.36,-0.35 4.42,0.36 4.25,1.05 4.07,1.75 3.69,2.36 3.30,2.96 2.74,3.41 2.18,3.86 1.51,4.11 0.83,4.36 0.11,4.38 -0.60,4.40 -1.28,4.18 -1.97,3.97 -2.55,3.55 -3.14,3.13 -3.14,3.14 -3.14,3.14 -3.47,2.71 -3.80,2.29 -4.02,1.80 -4.24,1.32 -4.33,0.79 -4.43,0.26 -4.40,-0.26 -4.36,-0.80 -4.20,-1.31 -4.04,-1.82 -3.77,-2.28 -3.49,-2.73 -3.11,-3.11 -2.73,-3.49 -2.28,-3.77 -1.82,-4.05 -1.31,-4.20 -0.80,-4.36 -0.26,-4.40 0.26,-4.43 0.79,-4.33 1.32,-4.24 1.80,-4.02 2.29,-3.80 2.71,-3.47 3.14,-3.14 3.14,-3.14 L 3.14,-3.14 Z"/>
    </g>
    <g stroke="none" transform="translate(98.86 56.60) rotate(0 0 0)">
      <path fill="#555" d="M 3.14,-3.14 Q 3.14,-3.14 3.55,-2.55 3.97,-1.97 4.18,-1.28 4.40,-0.59 4.38,0.11 4.36,0.83 4.11,1.51 3.86,2.18 3.41,2.74 2.96,3.30 2.36,3.69 1.75,4.08 1.05,4.25 0.36,4.42 -0.35,4.36 -1.07,4.31 -1.73,4.02 -2.39,3.74 -2.92,3.26 -3.46,2.78 -3.81,2.15 -4.16,1.53 -4.30,0.82 -4.43,0.11 -4.34,-0.59 -4.24,-1.30 -3.92,-1.94 -3.60,-2.59 -3.09,-3.09 -2.59,-3.60 -1.94,-3.92 -1.30,-4.24 -0.59,-4.34 0.12,-4.43 0.82,-4.30 1.53,-4.16 2.15,-3.81 2.78,-3.46 3.26,-2.92 3.74,-2.39 4.02,-1.73 4.31,-1.07 4.36,-0.35 4.42,0.36 4.25,1.05 4.07,1.75 3.69,2.36 3.30,2.96 2.74,3.41 2.18,3.86 1.51,4.11 0.83,4.36 0.11,4.38 -0.60,4.40 -1.28,4.18 -1.97,3.97 -2.55,3.55 -3.14,3.13 -3.14,3.14 -3.14,3.14 -3.47,2.71 -3.80,2.29 -4.02,1.80 -4.24,1.32 -4.33,0.79 -4.43,0.26 -4.40,-0.26 -4.36,-0.80 -4.20,-1.31 -4.04,-1.82 -3.77,-2.28 -3.49,-2.73 -3.11,-3.11 -2.73,-3.49 -2.28,-3.77 -1.82,-4.05 -1.31,-4.20 -0.80,-4.36 -0.26,-4.40 0.26,-4.43 0.79,-4.33 1.32,-4.24 1.80,-4.02 2.29,-3.80 2.71,-3.47 3.14,-3.14 3.14,-3.14 L 3.14,-3.14 Z"/>
    </g>
  </g>
</svg>
